<mxfile host="app.diagrams.net" modified="2023-07-04T06:33:27.498Z" agent="Mozilla/5.0 (X11; Ubuntu; Linux x86_64; rv:109.0) Gecko/20100101 Firefox/114.0" etag="eUa2DReHm8Ck58da7wSy" version="21.5.2" type="device">
  <diagram name="Page-1" id="NeRlO9VVe4cwhXA99yt8">
    <mxGraphModel dx="819" dy="423" grid="1" gridSize="10" guides="1" tooltips="1" connect="1" arrows="1" fold="1" page="1" pageScale="1" pageWidth="850" pageHeight="1100" math="0" shadow="0">
      <root>
        <mxCell id="0" />
        <mxCell id="1" parent="0" />
        <mxCell id="867BypfmUtr54ueLP3Bx-38" style="edgeStyle=none;rounded=0;orthogonalLoop=1;jettySize=auto;html=1;entryX=0.5;entryY=0;entryDx=0;entryDy=0;" edge="1" parent="1" source="867BypfmUtr54ueLP3Bx-1" target="867BypfmUtr54ueLP3Bx-10">
          <mxGeometry relative="1" as="geometry" />
        </mxCell>
        <mxCell id="867BypfmUtr54ueLP3Bx-1" value="1" style="text;html=1;align=center;verticalAlign=middle;whiteSpace=wrap;rounded=0;fillColor=#6a00ff;fontColor=#ffffff;strokeColor=#3700CC;" vertex="1" parent="1">
          <mxGeometry x="115" y="130" width="30" height="30" as="geometry" />
        </mxCell>
        <mxCell id="867BypfmUtr54ueLP3Bx-39" style="edgeStyle=none;rounded=0;orthogonalLoop=1;jettySize=auto;html=1;entryX=0.5;entryY=0;entryDx=0;entryDy=0;" edge="1" parent="1" source="867BypfmUtr54ueLP3Bx-2" target="867BypfmUtr54ueLP3Bx-9">
          <mxGeometry relative="1" as="geometry" />
        </mxCell>
        <mxCell id="867BypfmUtr54ueLP3Bx-2" value="2" style="text;html=1;align=center;verticalAlign=middle;whiteSpace=wrap;rounded=0;fillColor=#6a00ff;fontColor=#ffffff;strokeColor=#3700CC;" vertex="1" parent="1">
          <mxGeometry x="155" y="130" width="30" height="30" as="geometry" />
        </mxCell>
        <mxCell id="867BypfmUtr54ueLP3Bx-42" style="edgeStyle=none;rounded=0;orthogonalLoop=1;jettySize=auto;html=1;entryX=0.5;entryY=0;entryDx=0;entryDy=0;" edge="1" parent="1" source="867BypfmUtr54ueLP3Bx-3" target="867BypfmUtr54ueLP3Bx-12">
          <mxGeometry relative="1" as="geometry" />
        </mxCell>
        <mxCell id="867BypfmUtr54ueLP3Bx-3" value="3" style="text;html=1;align=center;verticalAlign=middle;whiteSpace=wrap;rounded=0;fillColor=#6a00ff;fontColor=#ffffff;strokeColor=#3700CC;" vertex="1" parent="1">
          <mxGeometry x="195" y="130" width="30" height="30" as="geometry" />
        </mxCell>
        <mxCell id="867BypfmUtr54ueLP3Bx-43" style="edgeStyle=none;rounded=0;orthogonalLoop=1;jettySize=auto;html=1;entryX=0.5;entryY=0;entryDx=0;entryDy=0;" edge="1" parent="1" source="867BypfmUtr54ueLP3Bx-4" target="867BypfmUtr54ueLP3Bx-11">
          <mxGeometry relative="1" as="geometry" />
        </mxCell>
        <mxCell id="867BypfmUtr54ueLP3Bx-4" value="4" style="text;html=1;align=center;verticalAlign=middle;whiteSpace=wrap;rounded=0;fillColor=#6a00ff;fontColor=#ffffff;strokeColor=#3700CC;" vertex="1" parent="1">
          <mxGeometry x="235" y="130" width="30" height="30" as="geometry" />
        </mxCell>
        <mxCell id="867BypfmUtr54ueLP3Bx-44" style="edgeStyle=none;rounded=0;orthogonalLoop=1;jettySize=auto;html=1;entryX=0.5;entryY=0;entryDx=0;entryDy=0;" edge="1" parent="1" source="867BypfmUtr54ueLP3Bx-5" target="867BypfmUtr54ueLP3Bx-14">
          <mxGeometry relative="1" as="geometry" />
        </mxCell>
        <mxCell id="867BypfmUtr54ueLP3Bx-5" value="5" style="text;html=1;align=center;verticalAlign=middle;whiteSpace=wrap;rounded=0;fillColor=#6a00ff;fontColor=#ffffff;strokeColor=#3700CC;" vertex="1" parent="1">
          <mxGeometry x="275" y="130" width="30" height="30" as="geometry" />
        </mxCell>
        <mxCell id="867BypfmUtr54ueLP3Bx-45" style="edgeStyle=none;rounded=0;orthogonalLoop=1;jettySize=auto;html=1;entryX=0.5;entryY=0;entryDx=0;entryDy=0;" edge="1" parent="1" source="867BypfmUtr54ueLP3Bx-6" target="867BypfmUtr54ueLP3Bx-13">
          <mxGeometry relative="1" as="geometry" />
        </mxCell>
        <mxCell id="867BypfmUtr54ueLP3Bx-6" value="6" style="text;html=1;align=center;verticalAlign=middle;whiteSpace=wrap;rounded=0;fillColor=#6a00ff;fontColor=#ffffff;strokeColor=#3700CC;" vertex="1" parent="1">
          <mxGeometry x="315" y="130" width="30" height="30" as="geometry" />
        </mxCell>
        <mxCell id="867BypfmUtr54ueLP3Bx-46" style="edgeStyle=none;rounded=0;orthogonalLoop=1;jettySize=auto;html=1;entryX=0.5;entryY=0;entryDx=0;entryDy=0;" edge="1" parent="1" source="867BypfmUtr54ueLP3Bx-7" target="867BypfmUtr54ueLP3Bx-16">
          <mxGeometry relative="1" as="geometry" />
        </mxCell>
        <mxCell id="867BypfmUtr54ueLP3Bx-7" value="7" style="text;html=1;align=center;verticalAlign=middle;whiteSpace=wrap;rounded=0;fillColor=#6a00ff;fontColor=#ffffff;strokeColor=#3700CC;" vertex="1" parent="1">
          <mxGeometry x="355" y="130" width="30" height="30" as="geometry" />
        </mxCell>
        <mxCell id="867BypfmUtr54ueLP3Bx-47" style="edgeStyle=none;rounded=0;orthogonalLoop=1;jettySize=auto;html=1;entryX=0.5;entryY=0;entryDx=0;entryDy=0;" edge="1" parent="1" source="867BypfmUtr54ueLP3Bx-8" target="867BypfmUtr54ueLP3Bx-15">
          <mxGeometry relative="1" as="geometry" />
        </mxCell>
        <mxCell id="867BypfmUtr54ueLP3Bx-8" value="8" style="text;html=1;align=center;verticalAlign=middle;whiteSpace=wrap;rounded=0;fillColor=#6a00ff;fontColor=#ffffff;strokeColor=#3700CC;" vertex="1" parent="1">
          <mxGeometry x="395" y="130" width="30" height="30" as="geometry" />
        </mxCell>
        <mxCell id="867BypfmUtr54ueLP3Bx-48" style="edgeStyle=none;rounded=0;orthogonalLoop=1;jettySize=auto;html=1;entryX=0.5;entryY=0;entryDx=0;entryDy=0;" edge="1" parent="1" source="867BypfmUtr54ueLP3Bx-9" target="867BypfmUtr54ueLP3Bx-19">
          <mxGeometry relative="1" as="geometry" />
        </mxCell>
        <mxCell id="867BypfmUtr54ueLP3Bx-9" value="1" style="text;html=1;align=center;verticalAlign=middle;whiteSpace=wrap;rounded=0;fillColor=#6a00ff;fontColor=#ffffff;strokeColor=#3700CC;" vertex="1" parent="1">
          <mxGeometry x="115" y="210" width="30" height="30" as="geometry" />
        </mxCell>
        <mxCell id="867BypfmUtr54ueLP3Bx-49" style="edgeStyle=none;rounded=0;orthogonalLoop=1;jettySize=auto;html=1;entryX=0.5;entryY=0;entryDx=0;entryDy=0;" edge="1" parent="1" source="867BypfmUtr54ueLP3Bx-10" target="867BypfmUtr54ueLP3Bx-20">
          <mxGeometry relative="1" as="geometry" />
        </mxCell>
        <mxCell id="867BypfmUtr54ueLP3Bx-10" value="2" style="text;html=1;align=center;verticalAlign=middle;whiteSpace=wrap;rounded=0;fillColor=#6a00ff;fontColor=#ffffff;strokeColor=#3700CC;" vertex="1" parent="1">
          <mxGeometry x="155" y="210" width="30" height="30" as="geometry" />
        </mxCell>
        <mxCell id="867BypfmUtr54ueLP3Bx-50" style="edgeStyle=none;rounded=0;orthogonalLoop=1;jettySize=auto;html=1;entryX=0.5;entryY=0;entryDx=0;entryDy=0;" edge="1" parent="1" source="867BypfmUtr54ueLP3Bx-11" target="867BypfmUtr54ueLP3Bx-17">
          <mxGeometry relative="1" as="geometry" />
        </mxCell>
        <mxCell id="867BypfmUtr54ueLP3Bx-11" value="3" style="text;html=1;align=center;verticalAlign=middle;whiteSpace=wrap;rounded=0;fillColor=#6a00ff;fontColor=#ffffff;strokeColor=#3700CC;" vertex="1" parent="1">
          <mxGeometry x="195" y="210" width="30" height="30" as="geometry" />
        </mxCell>
        <mxCell id="867BypfmUtr54ueLP3Bx-51" style="edgeStyle=none;rounded=0;orthogonalLoop=1;jettySize=auto;html=1;entryX=0.5;entryY=0;entryDx=0;entryDy=0;" edge="1" parent="1" source="867BypfmUtr54ueLP3Bx-12" target="867BypfmUtr54ueLP3Bx-18">
          <mxGeometry relative="1" as="geometry" />
        </mxCell>
        <mxCell id="867BypfmUtr54ueLP3Bx-12" value="4" style="text;html=1;align=center;verticalAlign=middle;whiteSpace=wrap;rounded=0;fillColor=#6a00ff;fontColor=#ffffff;strokeColor=#3700CC;" vertex="1" parent="1">
          <mxGeometry x="235" y="210" width="30" height="30" as="geometry" />
        </mxCell>
        <mxCell id="867BypfmUtr54ueLP3Bx-52" style="edgeStyle=none;rounded=0;orthogonalLoop=1;jettySize=auto;html=1;entryX=0.5;entryY=0;entryDx=0;entryDy=0;" edge="1" parent="1" source="867BypfmUtr54ueLP3Bx-13" target="867BypfmUtr54ueLP3Bx-23">
          <mxGeometry relative="1" as="geometry" />
        </mxCell>
        <mxCell id="867BypfmUtr54ueLP3Bx-13" value="5" style="text;html=1;align=center;verticalAlign=middle;whiteSpace=wrap;rounded=0;fillColor=#6a00ff;fontColor=#ffffff;strokeColor=#3700CC;" vertex="1" parent="1">
          <mxGeometry x="275" y="210" width="30" height="30" as="geometry" />
        </mxCell>
        <mxCell id="867BypfmUtr54ueLP3Bx-53" style="edgeStyle=none;rounded=0;orthogonalLoop=1;jettySize=auto;html=1;entryX=0.5;entryY=0;entryDx=0;entryDy=0;" edge="1" parent="1" source="867BypfmUtr54ueLP3Bx-14" target="867BypfmUtr54ueLP3Bx-24">
          <mxGeometry relative="1" as="geometry" />
        </mxCell>
        <mxCell id="867BypfmUtr54ueLP3Bx-14" value="6" style="text;html=1;align=center;verticalAlign=middle;whiteSpace=wrap;rounded=0;fillColor=#6a00ff;fontColor=#ffffff;strokeColor=#3700CC;" vertex="1" parent="1">
          <mxGeometry x="315" y="210" width="30" height="30" as="geometry" />
        </mxCell>
        <mxCell id="867BypfmUtr54ueLP3Bx-54" style="edgeStyle=none;rounded=0;orthogonalLoop=1;jettySize=auto;html=1;entryX=0.5;entryY=0;entryDx=0;entryDy=0;" edge="1" parent="1" source="867BypfmUtr54ueLP3Bx-15" target="867BypfmUtr54ueLP3Bx-21">
          <mxGeometry relative="1" as="geometry" />
        </mxCell>
        <mxCell id="867BypfmUtr54ueLP3Bx-15" value="7" style="text;html=1;align=center;verticalAlign=middle;whiteSpace=wrap;rounded=0;fillColor=#6a00ff;fontColor=#ffffff;strokeColor=#3700CC;" vertex="1" parent="1">
          <mxGeometry x="355" y="210" width="30" height="30" as="geometry" />
        </mxCell>
        <mxCell id="867BypfmUtr54ueLP3Bx-55" style="edgeStyle=none;rounded=0;orthogonalLoop=1;jettySize=auto;html=1;entryX=0.5;entryY=0;entryDx=0;entryDy=0;" edge="1" parent="1" source="867BypfmUtr54ueLP3Bx-16" target="867BypfmUtr54ueLP3Bx-22">
          <mxGeometry relative="1" as="geometry" />
        </mxCell>
        <mxCell id="867BypfmUtr54ueLP3Bx-16" value="8" style="text;html=1;align=center;verticalAlign=middle;whiteSpace=wrap;rounded=0;fillColor=#6a00ff;fontColor=#ffffff;strokeColor=#3700CC;" vertex="1" parent="1">
          <mxGeometry x="395" y="210" width="30" height="30" as="geometry" />
        </mxCell>
        <mxCell id="867BypfmUtr54ueLP3Bx-56" style="edgeStyle=none;rounded=0;orthogonalLoop=1;jettySize=auto;html=1;entryX=0.5;entryY=0;entryDx=0;entryDy=0;" edge="1" parent="1" source="867BypfmUtr54ueLP3Bx-17" target="867BypfmUtr54ueLP3Bx-29">
          <mxGeometry relative="1" as="geometry" />
        </mxCell>
        <mxCell id="867BypfmUtr54ueLP3Bx-17" value="1" style="text;html=1;align=center;verticalAlign=middle;whiteSpace=wrap;rounded=0;fillColor=#6a00ff;fontColor=#ffffff;strokeColor=#3700CC;" vertex="1" parent="1">
          <mxGeometry x="115" y="290" width="30" height="30" as="geometry" />
        </mxCell>
        <mxCell id="867BypfmUtr54ueLP3Bx-58" style="edgeStyle=none;rounded=0;orthogonalLoop=1;jettySize=auto;html=1;entryX=0.5;entryY=0;entryDx=0;entryDy=0;" edge="1" parent="1" source="867BypfmUtr54ueLP3Bx-18" target="867BypfmUtr54ueLP3Bx-30">
          <mxGeometry relative="1" as="geometry" />
        </mxCell>
        <mxCell id="867BypfmUtr54ueLP3Bx-18" value="2" style="text;html=1;align=center;verticalAlign=middle;whiteSpace=wrap;rounded=0;fillColor=#6a00ff;fontColor=#ffffff;strokeColor=#3700CC;" vertex="1" parent="1">
          <mxGeometry x="155" y="290" width="30" height="30" as="geometry" />
        </mxCell>
        <mxCell id="867BypfmUtr54ueLP3Bx-59" style="edgeStyle=none;rounded=0;orthogonalLoop=1;jettySize=auto;html=1;entryX=0.5;entryY=0;entryDx=0;entryDy=0;" edge="1" parent="1" source="867BypfmUtr54ueLP3Bx-19" target="867BypfmUtr54ueLP3Bx-31">
          <mxGeometry relative="1" as="geometry" />
        </mxCell>
        <mxCell id="867BypfmUtr54ueLP3Bx-19" value="3" style="text;html=1;align=center;verticalAlign=middle;whiteSpace=wrap;rounded=0;fillColor=#6a00ff;fontColor=#ffffff;strokeColor=#3700CC;" vertex="1" parent="1">
          <mxGeometry x="195" y="290" width="30" height="30" as="geometry" />
        </mxCell>
        <mxCell id="867BypfmUtr54ueLP3Bx-60" style="edgeStyle=none;rounded=0;orthogonalLoop=1;jettySize=auto;html=1;entryX=0.5;entryY=0;entryDx=0;entryDy=0;" edge="1" parent="1" source="867BypfmUtr54ueLP3Bx-20" target="867BypfmUtr54ueLP3Bx-32">
          <mxGeometry relative="1" as="geometry" />
        </mxCell>
        <mxCell id="867BypfmUtr54ueLP3Bx-20" value="4" style="text;html=1;align=center;verticalAlign=middle;whiteSpace=wrap;rounded=0;fillColor=#6a00ff;fontColor=#ffffff;strokeColor=#3700CC;" vertex="1" parent="1">
          <mxGeometry x="235" y="290" width="30" height="30" as="geometry" />
        </mxCell>
        <mxCell id="867BypfmUtr54ueLP3Bx-61" style="edgeStyle=none;rounded=0;orthogonalLoop=1;jettySize=auto;html=1;entryX=0.5;entryY=0;entryDx=0;entryDy=0;" edge="1" parent="1" source="867BypfmUtr54ueLP3Bx-21" target="867BypfmUtr54ueLP3Bx-25">
          <mxGeometry relative="1" as="geometry" />
        </mxCell>
        <mxCell id="867BypfmUtr54ueLP3Bx-21" value="5" style="text;html=1;align=center;verticalAlign=middle;whiteSpace=wrap;rounded=0;fillColor=#6a00ff;fontColor=#ffffff;strokeColor=#3700CC;" vertex="1" parent="1">
          <mxGeometry x="275" y="290" width="30" height="30" as="geometry" />
        </mxCell>
        <mxCell id="867BypfmUtr54ueLP3Bx-62" style="edgeStyle=none;rounded=0;orthogonalLoop=1;jettySize=auto;html=1;entryX=0.5;entryY=0;entryDx=0;entryDy=0;" edge="1" parent="1" source="867BypfmUtr54ueLP3Bx-22" target="867BypfmUtr54ueLP3Bx-26">
          <mxGeometry relative="1" as="geometry" />
        </mxCell>
        <mxCell id="867BypfmUtr54ueLP3Bx-22" value="6" style="text;html=1;align=center;verticalAlign=middle;whiteSpace=wrap;rounded=0;fillColor=#6a00ff;fontColor=#ffffff;strokeColor=#3700CC;" vertex="1" parent="1">
          <mxGeometry x="315" y="290" width="30" height="30" as="geometry" />
        </mxCell>
        <mxCell id="867BypfmUtr54ueLP3Bx-63" style="edgeStyle=none;rounded=0;orthogonalLoop=1;jettySize=auto;html=1;entryX=0.5;entryY=0;entryDx=0;entryDy=0;" edge="1" parent="1" source="867BypfmUtr54ueLP3Bx-23" target="867BypfmUtr54ueLP3Bx-27">
          <mxGeometry relative="1" as="geometry" />
        </mxCell>
        <mxCell id="867BypfmUtr54ueLP3Bx-23" value="7" style="text;html=1;align=center;verticalAlign=middle;whiteSpace=wrap;rounded=0;fillColor=#6a00ff;fontColor=#ffffff;strokeColor=#3700CC;" vertex="1" parent="1">
          <mxGeometry x="355" y="290" width="30" height="30" as="geometry" />
        </mxCell>
        <mxCell id="867BypfmUtr54ueLP3Bx-64" style="edgeStyle=none;rounded=0;orthogonalLoop=1;jettySize=auto;html=1;entryX=0.5;entryY=0;entryDx=0;entryDy=0;" edge="1" parent="1" source="867BypfmUtr54ueLP3Bx-24" target="867BypfmUtr54ueLP3Bx-28">
          <mxGeometry relative="1" as="geometry" />
        </mxCell>
        <mxCell id="867BypfmUtr54ueLP3Bx-24" value="8" style="text;html=1;align=center;verticalAlign=middle;whiteSpace=wrap;rounded=0;fillColor=#6a00ff;fontColor=#ffffff;strokeColor=#3700CC;" vertex="1" parent="1">
          <mxGeometry x="395" y="290" width="30" height="30" as="geometry" />
        </mxCell>
        <mxCell id="867BypfmUtr54ueLP3Bx-25" value="1" style="text;html=1;align=center;verticalAlign=middle;whiteSpace=wrap;rounded=0;fillColor=#6a00ff;fontColor=#ffffff;strokeColor=#3700CC;" vertex="1" parent="1">
          <mxGeometry x="115" y="370" width="30" height="30" as="geometry" />
        </mxCell>
        <mxCell id="867BypfmUtr54ueLP3Bx-26" value="2" style="text;html=1;align=center;verticalAlign=middle;whiteSpace=wrap;rounded=0;fillColor=#6a00ff;fontColor=#ffffff;strokeColor=#3700CC;" vertex="1" parent="1">
          <mxGeometry x="155" y="370" width="30" height="30" as="geometry" />
        </mxCell>
        <mxCell id="867BypfmUtr54ueLP3Bx-27" value="3" style="text;html=1;align=center;verticalAlign=middle;whiteSpace=wrap;rounded=0;fillColor=#6a00ff;fontColor=#ffffff;strokeColor=#3700CC;" vertex="1" parent="1">
          <mxGeometry x="195" y="370" width="30" height="30" as="geometry" />
        </mxCell>
        <mxCell id="867BypfmUtr54ueLP3Bx-28" value="4" style="text;html=1;align=center;verticalAlign=middle;whiteSpace=wrap;rounded=0;fillColor=#6a00ff;fontColor=#ffffff;strokeColor=#3700CC;" vertex="1" parent="1">
          <mxGeometry x="235" y="370" width="30" height="30" as="geometry" />
        </mxCell>
        <mxCell id="867BypfmUtr54ueLP3Bx-29" value="5" style="text;html=1;align=center;verticalAlign=middle;whiteSpace=wrap;rounded=0;fillColor=#6a00ff;fontColor=#ffffff;strokeColor=#3700CC;" vertex="1" parent="1">
          <mxGeometry x="275" y="370" width="30" height="30" as="geometry" />
        </mxCell>
        <mxCell id="867BypfmUtr54ueLP3Bx-30" value="6" style="text;html=1;align=center;verticalAlign=middle;whiteSpace=wrap;rounded=0;fillColor=#6a00ff;fontColor=#ffffff;strokeColor=#3700CC;" vertex="1" parent="1">
          <mxGeometry x="315" y="370" width="30" height="30" as="geometry" />
        </mxCell>
        <mxCell id="867BypfmUtr54ueLP3Bx-31" value="7" style="text;html=1;align=center;verticalAlign=middle;whiteSpace=wrap;rounded=0;fillColor=#6a00ff;fontColor=#ffffff;strokeColor=#3700CC;" vertex="1" parent="1">
          <mxGeometry x="355" y="370" width="30" height="30" as="geometry" />
        </mxCell>
        <mxCell id="867BypfmUtr54ueLP3Bx-32" value="8" style="text;html=1;align=center;verticalAlign=middle;whiteSpace=wrap;rounded=0;fillColor=#6a00ff;fontColor=#ffffff;strokeColor=#3700CC;" vertex="1" parent="1">
          <mxGeometry x="395" y="370" width="30" height="30" as="geometry" />
        </mxCell>
        <mxCell id="867BypfmUtr54ueLP3Bx-65" style="edgeStyle=none;rounded=0;orthogonalLoop=1;jettySize=auto;html=1;entryX=0.5;entryY=0;entryDx=0;entryDy=0;" edge="1" parent="1" source="867BypfmUtr54ueLP3Bx-66" target="867BypfmUtr54ueLP3Bx-84">
          <mxGeometry relative="1" as="geometry" />
        </mxCell>
        <mxCell id="867BypfmUtr54ueLP3Bx-66" value="1" style="text;html=1;align=center;verticalAlign=middle;whiteSpace=wrap;rounded=0;fillColor=#6a00ff;fontColor=#ffffff;strokeColor=#3700CC;" vertex="1" parent="1">
          <mxGeometry x="470" y="130" width="30" height="30" as="geometry" />
        </mxCell>
        <mxCell id="867BypfmUtr54ueLP3Bx-67" style="edgeStyle=none;rounded=0;orthogonalLoop=1;jettySize=auto;html=1;entryX=0.5;entryY=0;entryDx=0;entryDy=0;" edge="1" parent="1" source="867BypfmUtr54ueLP3Bx-68" target="867BypfmUtr54ueLP3Bx-82">
          <mxGeometry relative="1" as="geometry" />
        </mxCell>
        <mxCell id="867BypfmUtr54ueLP3Bx-68" value="2" style="text;html=1;align=center;verticalAlign=middle;whiteSpace=wrap;rounded=0;fillColor=#6a00ff;fontColor=#ffffff;strokeColor=#3700CC;" vertex="1" parent="1">
          <mxGeometry x="630" y="130" width="30" height="30" as="geometry" />
        </mxCell>
        <mxCell id="867BypfmUtr54ueLP3Bx-69" style="edgeStyle=none;rounded=0;orthogonalLoop=1;jettySize=auto;html=1;entryX=0.5;entryY=0;entryDx=0;entryDy=0;" edge="1" parent="1" source="867BypfmUtr54ueLP3Bx-70" target="867BypfmUtr54ueLP3Bx-88">
          <mxGeometry relative="1" as="geometry" />
        </mxCell>
        <mxCell id="867BypfmUtr54ueLP3Bx-70" value="3" style="text;html=1;align=center;verticalAlign=middle;whiteSpace=wrap;rounded=0;fillColor=#6a00ff;fontColor=#ffffff;strokeColor=#3700CC;" vertex="1" parent="1">
          <mxGeometry x="550" y="130" width="30" height="30" as="geometry" />
        </mxCell>
        <mxCell id="867BypfmUtr54ueLP3Bx-71" style="edgeStyle=none;rounded=0;orthogonalLoop=1;jettySize=auto;html=1;entryX=0.5;entryY=0;entryDx=0;entryDy=0;" edge="1" parent="1" source="867BypfmUtr54ueLP3Bx-72" target="867BypfmUtr54ueLP3Bx-86">
          <mxGeometry relative="1" as="geometry" />
        </mxCell>
        <mxCell id="867BypfmUtr54ueLP3Bx-72" value="4" style="text;html=1;align=center;verticalAlign=middle;whiteSpace=wrap;rounded=0;fillColor=#6a00ff;fontColor=#ffffff;strokeColor=#3700CC;" vertex="1" parent="1">
          <mxGeometry x="710" y="130" width="30" height="30" as="geometry" />
        </mxCell>
        <mxCell id="867BypfmUtr54ueLP3Bx-73" style="edgeStyle=none;rounded=0;orthogonalLoop=1;jettySize=auto;html=1;entryX=0.5;entryY=0;entryDx=0;entryDy=0;" edge="1" parent="1" source="867BypfmUtr54ueLP3Bx-74" target="867BypfmUtr54ueLP3Bx-92">
          <mxGeometry relative="1" as="geometry" />
        </mxCell>
        <mxCell id="867BypfmUtr54ueLP3Bx-74" value="5" style="text;html=1;align=center;verticalAlign=middle;whiteSpace=wrap;rounded=0;fillColor=#6a00ff;fontColor=#ffffff;strokeColor=#3700CC;" vertex="1" parent="1">
          <mxGeometry x="510" y="130" width="30" height="30" as="geometry" />
        </mxCell>
        <mxCell id="867BypfmUtr54ueLP3Bx-75" style="edgeStyle=none;rounded=0;orthogonalLoop=1;jettySize=auto;html=1;entryX=0.5;entryY=0;entryDx=0;entryDy=0;" edge="1" parent="1" source="867BypfmUtr54ueLP3Bx-76" target="867BypfmUtr54ueLP3Bx-90">
          <mxGeometry relative="1" as="geometry" />
        </mxCell>
        <mxCell id="867BypfmUtr54ueLP3Bx-76" value="6" style="text;html=1;align=center;verticalAlign=middle;whiteSpace=wrap;rounded=0;fillColor=#6a00ff;fontColor=#ffffff;strokeColor=#3700CC;" vertex="1" parent="1">
          <mxGeometry x="670" y="130" width="30" height="30" as="geometry" />
        </mxCell>
        <mxCell id="867BypfmUtr54ueLP3Bx-77" style="edgeStyle=none;rounded=0;orthogonalLoop=1;jettySize=auto;html=1;entryX=0.5;entryY=0;entryDx=0;entryDy=0;" edge="1" parent="1" source="867BypfmUtr54ueLP3Bx-78" target="867BypfmUtr54ueLP3Bx-96">
          <mxGeometry relative="1" as="geometry" />
        </mxCell>
        <mxCell id="867BypfmUtr54ueLP3Bx-78" value="7" style="text;html=1;align=center;verticalAlign=middle;whiteSpace=wrap;rounded=0;fillColor=#6a00ff;fontColor=#ffffff;strokeColor=#3700CC;" vertex="1" parent="1">
          <mxGeometry x="590" y="130" width="30" height="30" as="geometry" />
        </mxCell>
        <mxCell id="867BypfmUtr54ueLP3Bx-79" style="edgeStyle=none;rounded=0;orthogonalLoop=1;jettySize=auto;html=1;entryX=0.5;entryY=0;entryDx=0;entryDy=0;" edge="1" parent="1" source="867BypfmUtr54ueLP3Bx-80" target="867BypfmUtr54ueLP3Bx-94">
          <mxGeometry relative="1" as="geometry" />
        </mxCell>
        <mxCell id="867BypfmUtr54ueLP3Bx-80" value="8" style="text;html=1;align=center;verticalAlign=middle;whiteSpace=wrap;rounded=0;fillColor=#6a00ff;fontColor=#ffffff;strokeColor=#3700CC;" vertex="1" parent="1">
          <mxGeometry x="750" y="130" width="30" height="30" as="geometry" />
        </mxCell>
        <mxCell id="867BypfmUtr54ueLP3Bx-81" style="edgeStyle=none;rounded=0;orthogonalLoop=1;jettySize=auto;html=1;entryX=0.5;entryY=0;entryDx=0;entryDy=0;" edge="1" parent="1" source="867BypfmUtr54ueLP3Bx-82" target="867BypfmUtr54ueLP3Bx-102">
          <mxGeometry relative="1" as="geometry" />
        </mxCell>
        <mxCell id="867BypfmUtr54ueLP3Bx-82" value="1" style="text;html=1;align=center;verticalAlign=middle;whiteSpace=wrap;rounded=0;fillColor=#6a00ff;fontColor=#ffffff;strokeColor=#3700CC;" vertex="1" parent="1">
          <mxGeometry x="470" y="210" width="30" height="30" as="geometry" />
        </mxCell>
        <mxCell id="867BypfmUtr54ueLP3Bx-83" style="edgeStyle=none;rounded=0;orthogonalLoop=1;jettySize=auto;html=1;entryX=0.5;entryY=0;entryDx=0;entryDy=0;" edge="1" parent="1" source="867BypfmUtr54ueLP3Bx-84" target="867BypfmUtr54ueLP3Bx-104">
          <mxGeometry relative="1" as="geometry" />
        </mxCell>
        <mxCell id="867BypfmUtr54ueLP3Bx-84" value="2" style="text;html=1;align=center;verticalAlign=middle;whiteSpace=wrap;rounded=0;fillColor=#6a00ff;fontColor=#ffffff;strokeColor=#3700CC;" vertex="1" parent="1">
          <mxGeometry x="630" y="210" width="30" height="30" as="geometry" />
        </mxCell>
        <mxCell id="867BypfmUtr54ueLP3Bx-85" style="edgeStyle=none;rounded=0;orthogonalLoop=1;jettySize=auto;html=1;entryX=0.5;entryY=0;entryDx=0;entryDy=0;" edge="1" parent="1" source="867BypfmUtr54ueLP3Bx-86" target="867BypfmUtr54ueLP3Bx-98">
          <mxGeometry relative="1" as="geometry" />
        </mxCell>
        <mxCell id="867BypfmUtr54ueLP3Bx-86" value="3" style="text;html=1;align=center;verticalAlign=middle;whiteSpace=wrap;rounded=0;fillColor=#6a00ff;fontColor=#ffffff;strokeColor=#3700CC;" vertex="1" parent="1">
          <mxGeometry x="550" y="210" width="30" height="30" as="geometry" />
        </mxCell>
        <mxCell id="867BypfmUtr54ueLP3Bx-87" style="edgeStyle=none;rounded=0;orthogonalLoop=1;jettySize=auto;html=1;entryX=0.5;entryY=0;entryDx=0;entryDy=0;" edge="1" parent="1" source="867BypfmUtr54ueLP3Bx-88" target="867BypfmUtr54ueLP3Bx-100">
          <mxGeometry relative="1" as="geometry" />
        </mxCell>
        <mxCell id="867BypfmUtr54ueLP3Bx-88" value="4" style="text;html=1;align=center;verticalAlign=middle;whiteSpace=wrap;rounded=0;fillColor=#6a00ff;fontColor=#ffffff;strokeColor=#3700CC;" vertex="1" parent="1">
          <mxGeometry x="710" y="210" width="30" height="30" as="geometry" />
        </mxCell>
        <mxCell id="867BypfmUtr54ueLP3Bx-89" style="edgeStyle=none;rounded=0;orthogonalLoop=1;jettySize=auto;html=1;entryX=0.5;entryY=0;entryDx=0;entryDy=0;" edge="1" parent="1" source="867BypfmUtr54ueLP3Bx-90" target="867BypfmUtr54ueLP3Bx-110">
          <mxGeometry relative="1" as="geometry" />
        </mxCell>
        <mxCell id="867BypfmUtr54ueLP3Bx-90" value="5" style="text;html=1;align=center;verticalAlign=middle;whiteSpace=wrap;rounded=0;fillColor=#6a00ff;fontColor=#ffffff;strokeColor=#3700CC;" vertex="1" parent="1">
          <mxGeometry x="510" y="210" width="30" height="30" as="geometry" />
        </mxCell>
        <mxCell id="867BypfmUtr54ueLP3Bx-91" style="edgeStyle=none;rounded=0;orthogonalLoop=1;jettySize=auto;html=1;entryX=0.5;entryY=0;entryDx=0;entryDy=0;" edge="1" parent="1" source="867BypfmUtr54ueLP3Bx-92" target="867BypfmUtr54ueLP3Bx-112">
          <mxGeometry relative="1" as="geometry" />
        </mxCell>
        <mxCell id="867BypfmUtr54ueLP3Bx-92" value="6" style="text;html=1;align=center;verticalAlign=middle;whiteSpace=wrap;rounded=0;fillColor=#6a00ff;fontColor=#ffffff;strokeColor=#3700CC;" vertex="1" parent="1">
          <mxGeometry x="670" y="210" width="30" height="30" as="geometry" />
        </mxCell>
        <mxCell id="867BypfmUtr54ueLP3Bx-93" style="edgeStyle=none;rounded=0;orthogonalLoop=1;jettySize=auto;html=1;entryX=0.5;entryY=0;entryDx=0;entryDy=0;" edge="1" parent="1" source="867BypfmUtr54ueLP3Bx-94" target="867BypfmUtr54ueLP3Bx-106">
          <mxGeometry relative="1" as="geometry" />
        </mxCell>
        <mxCell id="867BypfmUtr54ueLP3Bx-94" value="7" style="text;html=1;align=center;verticalAlign=middle;whiteSpace=wrap;rounded=0;fillColor=#6a00ff;fontColor=#ffffff;strokeColor=#3700CC;" vertex="1" parent="1">
          <mxGeometry x="590" y="210" width="30" height="30" as="geometry" />
        </mxCell>
        <mxCell id="867BypfmUtr54ueLP3Bx-95" style="edgeStyle=none;rounded=0;orthogonalLoop=1;jettySize=auto;html=1;entryX=0.5;entryY=0;entryDx=0;entryDy=0;" edge="1" parent="1" source="867BypfmUtr54ueLP3Bx-96" target="867BypfmUtr54ueLP3Bx-108">
          <mxGeometry relative="1" as="geometry" />
        </mxCell>
        <mxCell id="867BypfmUtr54ueLP3Bx-96" value="8" style="text;html=1;align=center;verticalAlign=middle;whiteSpace=wrap;rounded=0;fillColor=#6a00ff;fontColor=#ffffff;strokeColor=#3700CC;" vertex="1" parent="1">
          <mxGeometry x="750" y="210" width="30" height="30" as="geometry" />
        </mxCell>
        <mxCell id="867BypfmUtr54ueLP3Bx-97" style="edgeStyle=none;rounded=0;orthogonalLoop=1;jettySize=auto;html=1;entryX=0.5;entryY=0;entryDx=0;entryDy=0;" edge="1" parent="1" source="867BypfmUtr54ueLP3Bx-98" target="867BypfmUtr54ueLP3Bx-117">
          <mxGeometry relative="1" as="geometry" />
        </mxCell>
        <mxCell id="867BypfmUtr54ueLP3Bx-98" value="1" style="text;html=1;align=center;verticalAlign=middle;whiteSpace=wrap;rounded=0;fillColor=#6a00ff;fontColor=#ffffff;strokeColor=#3700CC;" vertex="1" parent="1">
          <mxGeometry x="470" y="290" width="30" height="30" as="geometry" />
        </mxCell>
        <mxCell id="867BypfmUtr54ueLP3Bx-99" style="edgeStyle=none;rounded=0;orthogonalLoop=1;jettySize=auto;html=1;entryX=0.5;entryY=0;entryDx=0;entryDy=0;" edge="1" parent="1" source="867BypfmUtr54ueLP3Bx-100" target="867BypfmUtr54ueLP3Bx-118">
          <mxGeometry relative="1" as="geometry" />
        </mxCell>
        <mxCell id="867BypfmUtr54ueLP3Bx-100" value="2" style="text;html=1;align=center;verticalAlign=middle;whiteSpace=wrap;rounded=0;fillColor=#6a00ff;fontColor=#ffffff;strokeColor=#3700CC;" vertex="1" parent="1">
          <mxGeometry x="630" y="290" width="30" height="30" as="geometry" />
        </mxCell>
        <mxCell id="867BypfmUtr54ueLP3Bx-101" style="edgeStyle=none;rounded=0;orthogonalLoop=1;jettySize=auto;html=1;entryX=0.5;entryY=0;entryDx=0;entryDy=0;" edge="1" parent="1" source="867BypfmUtr54ueLP3Bx-102" target="867BypfmUtr54ueLP3Bx-119">
          <mxGeometry relative="1" as="geometry" />
        </mxCell>
        <mxCell id="867BypfmUtr54ueLP3Bx-102" value="3" style="text;html=1;align=center;verticalAlign=middle;whiteSpace=wrap;rounded=0;fillColor=#6a00ff;fontColor=#ffffff;strokeColor=#3700CC;" vertex="1" parent="1">
          <mxGeometry x="550" y="290" width="30" height="30" as="geometry" />
        </mxCell>
        <mxCell id="867BypfmUtr54ueLP3Bx-103" style="edgeStyle=none;rounded=0;orthogonalLoop=1;jettySize=auto;html=1;entryX=0.5;entryY=0;entryDx=0;entryDy=0;" edge="1" parent="1" source="867BypfmUtr54ueLP3Bx-104" target="867BypfmUtr54ueLP3Bx-120">
          <mxGeometry relative="1" as="geometry" />
        </mxCell>
        <mxCell id="867BypfmUtr54ueLP3Bx-104" value="4" style="text;html=1;align=center;verticalAlign=middle;whiteSpace=wrap;rounded=0;fillColor=#6a00ff;fontColor=#ffffff;strokeColor=#3700CC;" vertex="1" parent="1">
          <mxGeometry x="710" y="290" width="30" height="30" as="geometry" />
        </mxCell>
        <mxCell id="867BypfmUtr54ueLP3Bx-105" style="edgeStyle=none;rounded=0;orthogonalLoop=1;jettySize=auto;html=1;entryX=0.5;entryY=0;entryDx=0;entryDy=0;" edge="1" parent="1" source="867BypfmUtr54ueLP3Bx-106" target="867BypfmUtr54ueLP3Bx-113">
          <mxGeometry relative="1" as="geometry" />
        </mxCell>
        <mxCell id="867BypfmUtr54ueLP3Bx-106" value="5" style="text;html=1;align=center;verticalAlign=middle;whiteSpace=wrap;rounded=0;fillColor=#6a00ff;fontColor=#ffffff;strokeColor=#3700CC;" vertex="1" parent="1">
          <mxGeometry x="510" y="290" width="30" height="30" as="geometry" />
        </mxCell>
        <mxCell id="867BypfmUtr54ueLP3Bx-107" style="edgeStyle=none;rounded=0;orthogonalLoop=1;jettySize=auto;html=1;entryX=0.5;entryY=0;entryDx=0;entryDy=0;" edge="1" parent="1" source="867BypfmUtr54ueLP3Bx-108" target="867BypfmUtr54ueLP3Bx-114">
          <mxGeometry relative="1" as="geometry" />
        </mxCell>
        <mxCell id="867BypfmUtr54ueLP3Bx-108" value="6" style="text;html=1;align=center;verticalAlign=middle;whiteSpace=wrap;rounded=0;fillColor=#6a00ff;fontColor=#ffffff;strokeColor=#3700CC;" vertex="1" parent="1">
          <mxGeometry x="670" y="290" width="30" height="30" as="geometry" />
        </mxCell>
        <mxCell id="867BypfmUtr54ueLP3Bx-109" style="edgeStyle=none;rounded=0;orthogonalLoop=1;jettySize=auto;html=1;entryX=0.5;entryY=0;entryDx=0;entryDy=0;" edge="1" parent="1" source="867BypfmUtr54ueLP3Bx-110" target="867BypfmUtr54ueLP3Bx-115">
          <mxGeometry relative="1" as="geometry" />
        </mxCell>
        <mxCell id="867BypfmUtr54ueLP3Bx-110" value="7" style="text;html=1;align=center;verticalAlign=middle;whiteSpace=wrap;rounded=0;fillColor=#6a00ff;fontColor=#ffffff;strokeColor=#3700CC;" vertex="1" parent="1">
          <mxGeometry x="590" y="290" width="30" height="30" as="geometry" />
        </mxCell>
        <mxCell id="867BypfmUtr54ueLP3Bx-111" style="edgeStyle=none;rounded=0;orthogonalLoop=1;jettySize=auto;html=1;entryX=0.5;entryY=0;entryDx=0;entryDy=0;" edge="1" parent="1" source="867BypfmUtr54ueLP3Bx-112" target="867BypfmUtr54ueLP3Bx-116">
          <mxGeometry relative="1" as="geometry" />
        </mxCell>
        <mxCell id="867BypfmUtr54ueLP3Bx-112" value="8" style="text;html=1;align=center;verticalAlign=middle;whiteSpace=wrap;rounded=0;fillColor=#6a00ff;fontColor=#ffffff;strokeColor=#3700CC;" vertex="1" parent="1">
          <mxGeometry x="750" y="290" width="30" height="30" as="geometry" />
        </mxCell>
        <mxCell id="867BypfmUtr54ueLP3Bx-113" value="1" style="text;html=1;align=center;verticalAlign=middle;whiteSpace=wrap;rounded=0;fillColor=#6a00ff;fontColor=#ffffff;strokeColor=#3700CC;" vertex="1" parent="1">
          <mxGeometry x="470" y="370" width="30" height="30" as="geometry" />
        </mxCell>
        <mxCell id="867BypfmUtr54ueLP3Bx-114" value="2" style="text;html=1;align=center;verticalAlign=middle;whiteSpace=wrap;rounded=0;fillColor=#6a00ff;fontColor=#ffffff;strokeColor=#3700CC;" vertex="1" parent="1">
          <mxGeometry x="630" y="370" width="30" height="30" as="geometry" />
        </mxCell>
        <mxCell id="867BypfmUtr54ueLP3Bx-115" value="3" style="text;html=1;align=center;verticalAlign=middle;whiteSpace=wrap;rounded=0;fillColor=#6a00ff;fontColor=#ffffff;strokeColor=#3700CC;" vertex="1" parent="1">
          <mxGeometry x="550" y="370" width="30" height="30" as="geometry" />
        </mxCell>
        <mxCell id="867BypfmUtr54ueLP3Bx-116" value="4" style="text;html=1;align=center;verticalAlign=middle;whiteSpace=wrap;rounded=0;fillColor=#6a00ff;fontColor=#ffffff;strokeColor=#3700CC;" vertex="1" parent="1">
          <mxGeometry x="710" y="370" width="30" height="30" as="geometry" />
        </mxCell>
        <mxCell id="867BypfmUtr54ueLP3Bx-117" value="5" style="text;html=1;align=center;verticalAlign=middle;whiteSpace=wrap;rounded=0;fillColor=#6a00ff;fontColor=#ffffff;strokeColor=#3700CC;" vertex="1" parent="1">
          <mxGeometry x="510" y="370" width="30" height="30" as="geometry" />
        </mxCell>
        <mxCell id="867BypfmUtr54ueLP3Bx-118" value="6" style="text;html=1;align=center;verticalAlign=middle;whiteSpace=wrap;rounded=0;fillColor=#6a00ff;fontColor=#ffffff;strokeColor=#3700CC;" vertex="1" parent="1">
          <mxGeometry x="670" y="370" width="30" height="30" as="geometry" />
        </mxCell>
        <mxCell id="867BypfmUtr54ueLP3Bx-119" value="7" style="text;html=1;align=center;verticalAlign=middle;whiteSpace=wrap;rounded=0;fillColor=#6a00ff;fontColor=#ffffff;strokeColor=#3700CC;" vertex="1" parent="1">
          <mxGeometry x="590" y="370" width="30" height="30" as="geometry" />
        </mxCell>
        <mxCell id="867BypfmUtr54ueLP3Bx-120" value="8" style="text;html=1;align=center;verticalAlign=middle;whiteSpace=wrap;rounded=0;fillColor=#6a00ff;fontColor=#ffffff;strokeColor=#3700CC;" vertex="1" parent="1">
          <mxGeometry x="750" y="370" width="30" height="30" as="geometry" />
        </mxCell>
      </root>
    </mxGraphModel>
  </diagram>
</mxfile>
